<?xml version="1.0" standalone="no"?>
<!DOCTYPE svg PUBLIC "-//W3C//DTD SVG 20010904//EN"
 "http://www.w3.org/TR/2001/REC-SVG-20010904/DTD/svg10.dtd">
<svg version="1.0" xmlns="http://www.w3.org/2000/svg"
 width="840.000000pt" height="859.000000pt" viewBox="0 0 840.000000 859.000000"
 preserveAspectRatio="xMidYMid meet">
<metadata>
Created by potrace 1.16, written by Peter Selinger 2001-2019
</metadata>
<g transform="translate(0.000000,859.000000) scale(0.100000,-0.100000)"
fill="#000000" stroke="none">
<path d="M3750 8180 c0 -3 9 -47 20 -97 11 -51 29 -163 40 -250 11 -87 36
-250 56 -363 49 -287 121 -707 128 -758 4 -30 3 -41 -4 -37 -7 4 -9 -2 -6 -17
3 -12 10 -72 16 -133 6 -60 13 -125 16 -144 l5 -33 25 33 c14 19 56 97 94 174
67 137 112 258 205 558 26 82 48 147 50 145 2 -2 -18 -91 -44 -198 -50 -203
-101 -342 -220 -597 -82 -176 -95 -231 -87 -358 16 -244 63 -786 69 -791 22
-22 90 106 235 436 79 182 141 312 129 270 -20 -67 -197 -501 -247 -605 -34
-71 -73 -159 -86 -193 l-24 -64 21 -211 c27 -279 97 -858 104 -865 12 -12 120
153 189 288 129 251 234 532 312 835 46 179 49 164 8 -45 -28 -143 -74 -310
-114 -420 -37 -100 -236 -542 -316 -703 l-64 -127 24 -248 c14 -136 32 -355
41 -487 28 -438 37 -506 71 -540 18 -18 43 -19 64 -2 19 14 327 438 447 613
l84 124 -12 76 c-16 98 -6 290 21 409 63 279 216 629 392 892 49 73 93 135 98
138 6 3 -17 -36 -50 -87 -77 -119 -214 -389 -274 -540 -98 -245 -131 -404
-124 -591 8 -194 7 -193 118 -36 155 220 363 478 658 818 106 122 141 169 135
180 -13 26 -7 220 11 318 20 115 66 261 117 372 41 88 179 325 185 318 2 -2
-23 -54 -57 -117 -76 -140 -139 -281 -172 -385 -26 -84 -57 -266 -57 -338 0
-49 17 -117 29 -117 5 0 44 39 87 88 44 48 142 155 220 237 l140 150 18 89
c31 160 112 319 224 437 36 39 75 75 86 81 12 6 -15 -27 -59 -74 -91 -96 -145
-190 -175 -308 -19 -74 -26 -140 -14 -140 3 0 67 58 143 128 133 126 279 255
474 421 54 46 94 88 90 93 -4 7 -1 8 7 3 9 -6 -2 -22 -41 -59 -30 -28 -151
-141 -269 -252 -118 -110 -248 -237 -287 -281 -71 -79 -72 -81 -53 -98 38 -34
356 -16 515 30 44 13 81 22 83 20 2 -2 -33 -17 -78 -34 -101 -39 -231 -59
-425 -67 -82 -3 -164 -7 -182 -10 -25 -4 -65 -41 -215 -202 -345 -369 -518
-570 -518 -602 0 -24 59 -33 230 -34 163 0 189 3 370 38 107 21 211 39 230 42
62 7 -230 -65 -375 -92 -131 -25 -153 -26 -338 -21 l-197 6 -108 -131 c-222
-269 -482 -621 -482 -652 0 -9 16 -20 39 -27 122 -36 651 159 936 345 69 46
88 55 61 31 -142 -127 -412 -270 -641 -340 -135 -41 -374 -95 -422 -95 -41 0
-42 -1 -109 -97 -105 -152 -237 -332 -387 -526 -75 -98 -137 -186 -137 -196 0
-25 20 -41 51 -41 15 0 83 21 150 46 126 47 316 102 431 124 64 13 67 15 66
42 -1 36 31 81 112 153 129 115 221 177 363 245 134 64 365 155 373 147 2 -2
-42 -21 -99 -41 -290 -108 -516 -247 -628 -389 -47 -58 -49 -81 -10 -101 26
-14 45 -13 197 9 93 13 194 27 225 30 56 7 56 7 82 61 64 129 255 283 436 353
130 49 130 45 0 -21 -221 -112 -369 -242 -369 -323 0 -50 9 -52 132 -38 62 6
182 15 265 19 l153 7 25 33 c33 43 131 110 204 139 77 32 197 55 273 54 63 -1
62 -1 -47 -20 -224 -39 -365 -104 -365 -169 l0 -27 163 -7 c213 -9 403 -31
557 -63 69 -15 140 -27 158 -27 20 0 28 -2 20 -8 -8 -5 -9 -8 -2 -8 6 0 18 8
25 17 10 11 10 14 2 9 -18 -10 -16 4 5 28 16 20 16 20 -1 7 -22 -17 -34 -7
-17 14 11 13 10 14 -5 9 -15 -6 -16 -4 -7 12 11 20 12 26 12 49 0 19 27 8 34
-13 2 -10 4 -3 3 13 -1 21 -6 29 -17 26 -8 -2 -20 -4 -27 -4 -7 0 -10 -4 -7
-8 2 -4 0 -10 -5 -13 -5 -4 -8 2 -6 11 2 10 4 22 4 26 1 5 6 5 11 2 6 -3 10
-4 10 -2 0 3 -26 22 -57 43 -32 22 -61 44 -65 49 -4 6 -8 7 -8 2 0 -19 -104
100 -122 140 -23 52 -19 80 20 138 14 22 27 43 27 47 0 3 4 10 9 15 5 5 6 3 2
-4 -13 -22 8 -14 41 16 18 16 34 26 37 23 3 -3 6 0 6 6 0 7 6 11 13 9 6 -1 11
4 9 11 -1 8 1 11 5 9 5 -3 17 2 28 10 18 14 18 15 2 9 -10 -3 -37 -6 -58 -6
-28 0 -38 -4 -33 -12 4 -7 3 -8 -5 -4 -6 4 -120 0 -254 -10 -450 -31 -710 -1
-798 92 -34 36 -40 144 -11 200 99 192 491 339 1232 464 179 30 174 25 81 78
-108 60 -203 140 -248 208 -148 223 110 454 672 600 l110 28 -146 22 c-192 28
-278 55 -331 102 -56 50 -78 101 -78 184 -1 249 177 579 456 848 l109 104 -90
-49 c-124 -67 -291 -166 -409 -242 -89 -58 -138 -74 -121 -41 4 7 0 5 -8 -4
-15 -19 -32 -23 -40 -10 -2 4 -2 2 -1 -5 2 -6 -4 -14 -12 -17 -12 -5 -14 -1
-10 17 3 12 3 16 0 9 -4 -8 -12 -6 -26 10 -11 13 -17 18 -14 11 4 -6 3 -13 -1
-16 -5 -2 -2 -2 5 -1 6 2 12 -1 12 -6 0 -6 -5 -10 -11 -10 -8 0 -8 -4 0 -14
13 -15 28 -15 74 3 15 6 27 7 27 1 0 -14 -23 -25 -44 -21 -14 2 -17 -1 -12
-15 6 -14 4 -15 -10 -4 -13 12 -17 11 -26 -1 -8 -11 -9 -11 -4 4 6 20 -22 24
-44 5 -12 -11 -12 -10 -2 3 11 14 8 18 -19 28 -42 15 -47 14 -24 -3 11 -8 24
-12 29 -9 5 4 6 1 2 -5 -4 -7 -16 -12 -27 -12 -11 0 -17 5 -14 10 3 6 2 10 -4
10 -5 0 -11 -5 -13 -12 -2 -6 -12 -12 -21 -14 -9 -1 -15 2 -11 7 3 5 9 7 14 4
4 -3 10 4 13 14 4 16 -7 12 -59 -19 -220 -135 -375 -168 -474 -102 -14 9 -28
16 -32 14 -4 -1 -16 14 -28 33 -12 19 -33 44 -48 55 -15 12 -21 18 -14 15 11
-6 12 -3 3 12 -6 11 -8 23 -5 25 2 3 -1 10 -9 16 -10 8 -13 5 -15 -14 -1 -14
2 -23 7 -20 5 4 7 -3 4 -14 -3 -11 -9 -20 -14 -20 -5 0 -6 7 -3 15 4 8 1 15
-5 15 -6 0 -10 5 -8 11 1 6 -5 14 -13 16 -13 4 -13 3 0 -6 10 -7 11 -11 3 -11
-7 0 -13 -5 -13 -11 0 -5 5 -7 10 -4 6 3 10 2 10 -4 0 -6 -10 -15 -21 -22 -15
-8 -19 -8 -15 0 10 15 -7 14 -22 -1 -8 -8 -12 -9 -12 -1 0 6 -9 9 -19 6 -13
-3 -18 -11 -14 -21 4 -14 3 -15 -5 -2 -6 8 -8 18 -5 24 4 5 -1 7 -10 3 -10 -3
-17 -2 -17 3 0 13 21 24 29 14 3 -5 13 -10 21 -11 9 -2 6 4 -7 13 -13 9 -23
23 -23 31 0 8 -5 11 -11 8 -6 -4 -8 -9 -5 -12 6 -6 -11 -23 -41 -40 -14 -8
-24 -9 -28 -3 -3 6 -1 10 5 10 6 0 9 4 5 9 -3 5 -1 12 5 16 5 3 10 12 10 18 0
7 -9 -1 -19 -16 -10 -16 -17 -39 -15 -50 2 -12 1 -16 -2 -9 -4 8 -34 -38 -76
-115 -127 -234 -186 -323 -312 -472 -163 -193 -335 -283 -462 -241 -56 19
-193 110 -232 154 -44 50 -89 142 -109 223 -25 99 -25 471 0 598 23 117 60
228 113 342 l42 92 -60 -30 c-169 -85 -372 -91 -503 -14 -147 86 -218 237
-245 523 -16 176 15 325 114 536 l44 95 -51 -30 c-197 -115 -309 -143 -402
-100 -70 32 -120 99 -211 284 -46 95 -102 219 -124 277 -21 58 -40 103 -40
100z"/>
<path d="M3454 6701 c4 -6 3 -11 -2 -11 -6 0 -5 -21 0 -52 13 -66 4 -173 -17
-224 -74 -179 -359 -220 -683 -98 -35 13 -65 24 -67 24 -1 0 41 -64 92 -142
97 -147 207 -356 242 -463 42 -128 53 -218 49 -383 -5 -180 -19 -230 -88 -297
-36 -35 -38 -39 -24 -60 8 -12 11 -25 7 -28 -3 -4 -1 -7 5 -7 7 0 12 -10 12
-21 0 -18 -2 -20 -16 -9 -12 11 -15 11 -12 0 2 -8 -1 -14 -7 -15 -5 0 -16 -4
-23 -9 -7 -4 -19 -3 -26 3 -11 9 -14 8 -12 -6 1 -14 -6 -17 -31 -15 -18 1 -33
-2 -33 -7 0 -5 -14 -12 -30 -16 -17 -4 -28 -10 -25 -15 3 -5 1 -12 -5 -15 -6
-4 -10 -3 -9 2 3 19 -2 27 -10 15 -4 -7 -14 -14 -22 -16 -8 -1 -25 -8 -39 -16
-14 -7 -27 -14 -30 -14 -3 -1 -4 -5 -2 -10 2 -5 -4 -4 -12 4 -21 16 -21 17 14
-85 53 -151 61 -195 69 -356 l7 -157 90 -95 c295 -314 469 -494 490 -507 35
-21 48 -2 52 78 12 203 -86 562 -219 807 -63 116 -18 63 54 -64 135 -237 193
-465 202 -791 l3 -131 74 -82 c40 -45 192 -208 339 -362 146 -154 290 -307
320 -339 61 -67 132 -116 166 -116 45 0 47 27 19 301 -61 587 -107 942 -124
965 -9 12 -53 66 -98 120 -134 165 -419 547 -477 642 -90 146 -278 538 -277
579 0 4 31 -55 69 -132 123 -253 266 -483 443 -710 100 -130 289 -325 313
-325 20 0 19 6 -10 271 -23 211 -74 749 -76 794 0 13 -27 41 -76 80 -112 88
-304 276 -366 358 -30 40 -99 149 -152 242 -54 94 -105 181 -115 195 -30 44
-33 56 -7 25 15 -16 54 -74 89 -128 35 -54 94 -146 132 -205 73 -111 203 -255
333 -366 73 -63 138 -105 148 -95 5 6 -14 279 -56 769 -11 134 -27 262 -34
283 -26 75 -104 185 -273 384 -25 29 -47 45 -47 33 0 -3 -7 -13 -15 -21 -13
-15 -16 -14 -27 12 -9 22 -16 26 -35 22 -13 -3 -29 -10 -35 -16 -9 -6 -13 -6
-13 1 0 6 -7 9 -15 6 -8 -4 -27 2 -41 11 -15 9 -23 12 -20 6z"/>
<path d="M3874 6685 c4 -26 3 -28 -7 -13 -9 12 -17 14 -30 7 -9 -6 -17 -7 -17
-3 0 3 -8 0 -17 -7 -16 -12 -17 -12 -6 2 7 9 10 19 6 22 -3 4 -12 -1 -20 -11
-12 -16 -13 -16 -7 3 6 20 5 20 -10 1 -11 -13 -16 -15 -16 -6 0 7 -3 10 -7 7
-9 -10 28 -48 40 -40 5 3 7 2 4 -4 -7 -11 158 -223 173 -223 11 0 10 18 -11
178 -5 40 -9 77 -9 82 0 4 -11 7 -25 5 -15 -1 -30 4 -35 14 -8 12 -9 9 -6 -14z"/>
<path d="M574 5744 c3 -8 2 -12 -4 -9 -6 3 -10 1 -10 -5 0 -6 -4 -8 -10 -5 -5
3 -10 1 -10 -4 0 -6 6 -11 13 -11 6 -1 2 -9 -10 -19 -12 -10 -19 -21 -16 -25
3 -3 19 8 34 25 17 20 29 26 34 19 4 -6 4 -14 1 -17 -3 -4 -6 0 -6 8 0 8 -9 1
-19 -15 -17 -26 -18 -33 -6 -55 7 -14 32 -43 54 -63 23 -20 43 -41 44 -45 1
-4 5 -7 8 -6 3 1 6 -3 6 -10 1 -7 30 -56 66 -110 65 -97 116 -216 139 -321 14
-64 5 -137 -24 -187 -27 -49 -110 -107 -193 -134 -33 -11 -62 -22 -65 -25 -3
-3 -12 -5 -20 -5 -8 0 -14 -8 -14 -17 1 -10 -2 -15 -7 -12 -16 10 -9 -9 9 -22
16 -13 16 -14 -3 -8 -14 5 -17 4 -10 -4 6 -6 57 -21 115 -32 291 -61 489 -161
554 -281 69 -125 -1 -271 -205 -429 l-88 -68 87 -6 c48 -3 139 -8 202 -11 819
-42 1235 -201 1180 -450 -17 -75 -119 -139 -282 -175 -48 -11 -58 -17 -59 -34
0 -21 -1 -21 -9 -1 -5 11 -9 16 -10 10 -3 -20 -2 -117 2 -119 2 -2 55 -22 118
-46 63 -23 150 -60 192 -83 114 -60 244 -159 278 -213 l29 -46 268 -3 c147 -1
294 -6 325 -10 49 -7 59 -5 64 9 18 48 -44 125 -211 259 -175 141 -358 245
-565 321 -134 49 -96 44 63 -8 183 -60 303 -122 457 -235 105 -77 303 -263
337 -316 24 -37 34 -45 68 -49 245 -33 375 -54 510 -82 88 -18 142 -31 120
-29 -22 2 -65 7 -95 10 l-55 6 -46 -73 c-77 -120 -341 -470 -405 -534 -75 -76
-166 -152 -257 -212 -73 -49 -123 -78 -77 -45 248 180 512 488 633 740 43 91
43 101 -4 134 -24 18 -237 41 -494 55 l-110 6 -100 -112 c-121 -135 -252 -253
-360 -324 -81 -54 -461 -252 -416 -217 13 10 103 63 198 117 216 123 266 160
429 320 127 126 177 195 156 216 -6 6 -97 9 -243 6 -194 -3 -239 -6 -264 -20
-36 -20 -113 -99 -187 -193 -75 -94 -134 -149 -253 -235 -91 -65 -95 -67 -49
-23 28 26 89 82 135 123 81 74 224 242 254 301 l16 30 -68 -6 c-478 -43 -1293
-251 -1790 -458 -68 -28 -122 -52 -120 -53 1 -2 47 11 102 27 257 77 542 134
742 147 349 23 548 -51 594 -222 24 -86 -7 -262 -65 -375 -10 -18 -16 -34 -14
-36 2 -2 42 23 88 57 149 107 325 179 471 194 318 32 559 -229 559 -606 l0
-95 47 80 c130 223 241 319 532 457 91 43 193 92 226 109 200 105 383 268 466
417 l47 83 6 -38 c16 -106 28 -510 23 -732 -9 -366 -49 -627 -138 -896 -40
-120 -134 -327 -189 -417 -35 -56 -37 -86 -11 -120 43 -54 194 -108 261 -93
33 7 33 5 81 214 36 157 74 392 94 581 32 295 30 810 -5 1075 -11 90 -12 17
-1 -165 21 -341 23 -400 12 -400 -6 0 -8 8 -4 18 4 11 -1 8 -14 -7 l-20 -25
-1 430 c-1 236 -4 458 -7 494 l-7 65 36 -51 c94 -137 250 -269 420 -353 56
-28 189 -79 296 -114 208 -69 309 -114 405 -182 71 -50 162 -144 230 -235 26
-36 45 -56 41 -45 -15 41 -19 215 -6 292 70 438 457 580 932 342 46 -23 95
-50 111 -61 15 -11 27 -17 27 -14 0 2 -16 31 -35 63 -61 103 -88 188 -89 278
-1 96 18 138 89 204 82 75 212 120 412 142 192 21 536 2 848 -45 22 -4 -18 11
-90 33 -315 94 -552 162 -575 167 -14 2 -70 13 -125 24 -121 23 -241 37 -440
50 -188 12 -425 13 -425 1 0 -18 85 -84 144 -112 34 -16 95 -38 136 -49 l75
-20 -60 6 c-136 14 -276 77 -331 149 l-28 37 -111 -6 c-213 -13 -450 -37 -460
-47 -15 -15 23 -75 90 -141 82 -82 242 -187 410 -270 156 -78 149 -79 -35 -7
-262 103 -481 265 -520 385 -9 27 -17 34 -38 34 -60 0 -262 -21 -332 -35 -41
-8 -102 -17 -135 -20 -83 -9 -149 -21 -298 -57 -112 -26 -128 -33 -133 -53
-12 -50 51 -128 201 -248 207 -166 384 -264 618 -342 143 -49 152 -57 24 -24
-247 63 -524 204 -737 376 -72 58 -168 155 -201 203 l-15 23 -115 -38 c-157
-52 -212 -78 -235 -109 l-20 -27 -43 41 c-23 22 -57 44 -74 47 -28 6 -29 7 -9
14 13 5 22 17 22 30 0 14 -135 158 -430 458 l-430 438 -96 6 c-148 10 -560 66
-646 88 -43 11 -111 31 -150 45 -75 27 -288 130 -288 139 0 3 21 -5 48 -19
115 -58 368 -132 557 -163 136 -22 447 -25 467 -5 10 10 -42 67 -277 302
l-290 289 -165 -25 c-144 -22 -189 -24 -360 -21 -151 4 -216 9 -285 25 -49 12
-139 32 -200 46 -163 36 -83 31 153 -10 202 -35 212 -36 392 -30 256 8 390 33
390 75 0 16 -108 121 -357 349 -142 130 -102 119 -389 100 -315 -20 -556 17
-786 124 -83 38 -84 46 -2 13 232 -94 616 -135 841 -91 119 23 131 37 78 83
-314 273 -768 606 -1085 795 -156 93 -320 182 -320 173 0 -3 -7 1 -16 9 -20
20 -38 21 -30 0z"/>
<path d="M2542 4782 c-7 -2 -10 -8 -7 -13 4 -5 -1 -6 -9 -3 -9 3 -16 1 -16 -6
0 -6 -5 -8 -10 -5 -6 4 -7 11 -4 17 4 7 2 8 -4 4 -6 -4 -8 -14 -5 -24 6 -14 4
-15 -9 -4 -13 10 -18 10 -24 1 -5 -8 -3 -9 6 -4 9 5 11 4 6 -4 -4 -6 -11 -9
-16 -6 -12 7 -62 -13 -56 -23 3 -5 -8 -7 -23 -4 -16 2 -32 -1 -35 -7 -4 -6
-16 -11 -27 -11 -10 0 -19 -5 -19 -11 0 -5 6 -7 13 -3 6 4 8 3 4 -1 -10 -12
-38 -15 -31 -4 3 5 -2 9 -10 9 -42 0 -8 -45 122 -163 75 -69 162 -150 192
-181 84 -86 100 -76 100 64 0 86 -16 166 -57 294 -29 90 -40 102 -81 88z"/>
<path d="M2043 3022 c0 -9 5 -20 11 -24 8 -5 7 -11 -2 -20 -16 -16 -16 -31 1
-22 9 6 9 4 1 -7 -5 -8 -11 -29 -13 -48 -2 -25 0 -31 11 -26 10 6 11 5 1 -6
-7 -7 -13 -20 -13 -28 0 -14 1 -14 10 -1 7 12 9 10 7 -7 0 -12 -5 -19 -9 -17
-4 3 -8 -5 -8 -17 0 -19 2 -20 18 -8 14 11 13 10 -2 -9 -11 -12 -14 -22 -8
-22 7 0 12 -5 12 -11 0 -5 -4 -7 -10 -4 -6 4 -10 -9 -9 -32 1 -34 2 -35 9 -13
7 23 8 23 9 3 1 -12 -3 -25 -9 -28 -5 -3 -9 -21 -8 -40 1 -40 -18 -40 223 -6
83 12 188 24 234 29 52 4 86 12 88 19 7 21 -89 114 -182 176 -92 60 -228 133
-314 167 -44 17 -48 17 -48 2z"/>
</g>
</svg>
